# xmcd CD Database Entry
#
# Track frame offsets:
# 190
# 11987
# 27765
# 42345
# 56155
# 68740
# 86050
# 101237
# 116792
# 131840
# 147962
# 164632
# 180235
# 194815
# 209425
#
# Disc length: 3004 seconds
#
# Revision: 1
# Processed by: cddbd v1.4PL0 Copyright (c) Steve Scherf et al.
# Submitted via: tcd 2.0b
#
DISCID=e90bba0f
DTITLE=Lata Mangeshkar - Nostalgic Hits
DYEAR=1900
DGENRE=
TTITLE0=Kya Khabar Thi
TTITLE1=Hum Kitna Roye
TTITLE2=Mukh Mod Na Lena
TTITLE3=Preetam Meri Duniya Mein
TTITLE4=Rote Rote Guzar Gayi
TTITLE5=Ab Raat Guzarne Waali Hai
TTITLE6=Dukhiyare naina
TTITLE7=Leja Meri Duayen
TTITLE8=Chain Nahin Aaye
TTITLE9=Kattey Hain Dukh Mein
TTITLE10=Dua Kar Gham-E-Dil
TTITLE11=Aye Mere Dil Kahin Aur Chal
TTITLE12=Tu Pyar kare Ya Thukraye
TTITLE13=Do Din Ke Liye Mehman Yahan
TTITLE14=Mitti Se Khelte Ho
EXTD=
EXTT0=
EXTT1=
EXTT2=
EXTT3=
EXTT4=
EXTT5=
EXTT6=
EXTT7=
EXTT8=
EXTT9=
EXTT10=
EXTT11=
EXTT12=
EXTT13=
EXTT14=
PLAYORDER=
